<svg width="198" height="59" viewBox="0 0 198 59" fill="none" xmlns="http://www.w3.org/2000/svg">
<circle cx="99.5" cy="29.5" r="29.5" fill="#FAE577"/>
<path d="M6.96 29.264C6.128 29.264 5.384 29.192 4.728 29.048C4.072 28.904 3.352 28.712 2.568 28.472C2.088 28.296 1.728 28.2 1.488 28.184L1.68 23.84H3.216L3.624 26.96C3.896 27.216 4.336 27.448 4.944 27.656C5.568 27.848 6.248 27.944 6.984 27.944C8.2 27.944 9.12 27.672 9.744 27.128C10.384 26.584 10.704 25.832 10.704 24.872C10.704 24.248 10.528 23.712 10.176 23.264C9.84 22.816 9.384 22.432 8.808 22.112C8.248 21.792 7.472 21.416 6.48 20.984C5.584 20.584 4.8 20.176 4.128 19.76C3.472 19.344 2.896 18.792 2.4 18.104C1.92 17.4 1.68 16.56 1.68 15.584C1.68 14.704 1.912 13.92 2.376 13.232C2.856 12.528 3.536 11.976 4.416 11.576C5.312 11.176 6.352 10.976 7.536 10.976C8.272 10.976 8.92 11.032 9.48 11.144C10.056 11.256 10.704 11.408 11.424 11.6C11.744 11.712 12.016 11.784 12.24 11.816L12.096 15.848H10.632L10.152 12.896C9.992 12.736 9.656 12.584 9.144 12.44C8.648 12.296 8.104 12.224 7.512 12.224C6.408 12.224 5.568 12.456 4.992 12.92C4.432 13.384 4.152 14.056 4.152 14.936C4.152 15.576 4.32 16.112 4.656 16.544C5.008 16.976 5.44 17.344 5.952 17.648C6.464 17.952 7.28 18.368 8.4 18.896C9.44 19.392 10.288 19.84 10.944 20.24C11.6 20.64 12.16 21.168 12.624 21.824C13.104 22.464 13.344 23.232 13.344 24.128C13.344 24.976 13.104 25.792 12.624 26.576C12.16 27.36 11.44 28.008 10.464 28.52C9.504 29.016 8.336 29.264 6.96 29.264ZM21.21 12.44L17.082 12.584L16.242 17.6H14.658L15.066 11.168H30.018L30.306 17.6H28.794L28.002 12.584L23.85 12.44V27.584L27.258 27.824V29H18.09V27.824L21.21 27.584V12.44ZM40.0112 29.192C37.6592 29.192 35.9232 28.568 34.8032 27.32C33.6992 26.056 33.1472 24.104 33.1472 21.464V12.656L31.4432 12.368V11.168H37.8512V12.368L35.8112 12.68V21.728C35.8112 23.904 36.1952 25.472 36.9632 26.432C37.7472 27.392 38.8672 27.872 40.3232 27.872C41.7792 27.872 42.8672 27.36 43.5872 26.336C44.3232 25.312 44.6912 23.824 44.6912 21.872V12.68L42.6752 12.368V11.168H48.2672V12.368L46.5152 12.656V21.752C46.5152 24.248 45.9232 26.112 44.7392 27.344C43.5552 28.576 41.9792 29.192 40.0112 29.192ZM51.7288 12.656L49.8568 12.368V11.168H53.0008C53.4968 11.168 54.2088 11.136 55.1368 11.072C56.0648 11.008 56.7608 10.976 57.2248 10.976C60.2008 10.976 62.4088 11.728 63.8488 13.232C65.3048 14.72 66.0328 16.816 66.0328 19.52C66.0328 21.408 65.6568 23.088 64.9048 24.56C64.1688 26.016 63.1288 27.152 61.7848 27.968C60.4408 28.784 58.8968 29.192 57.1528 29.192C56.7688 29.192 56.1128 29.16 55.1848 29.096C54.2248 29.032 53.5048 29 53.0248 29H49.7368V27.824L51.7288 27.584V12.656ZM54.2728 27.656C54.8328 27.784 55.5528 27.848 56.4328 27.848H57.1528C58.3528 27.832 59.4088 27.528 60.3208 26.936C61.2488 26.344 61.9688 25.464 62.4808 24.296C62.9928 23.112 63.2488 21.68 63.2488 20C63.2488 17.472 62.6968 15.552 61.5928 14.24C60.5048 12.928 58.8568 12.272 56.6488 12.272C56.1848 12.272 55.6328 12.304 54.9928 12.368C54.7208 12.416 54.4808 12.44 54.2728 12.44V27.656ZM69.9163 12.656L67.9483 12.368V11.168H80.1643L80.5003 14.888H79.1323L78.4363 12.56L72.4843 12.416V19.184L76.4923 19.112L76.8283 17.12H78.1483V22.64H76.8283L76.4923 20.576L72.4843 20.504V27.656L79.2523 27.416L80.5243 24.392L81.9403 24.824L81.2443 29H67.9243V27.824L69.9163 27.584V12.656ZM85.5731 12.656L83.6531 12.368V11.168H88.1171L96.1091 22.88L97.4531 25.424V12.656L95.3651 12.368V11.168H101.029V12.368L99.1091 12.656V29H97.2131L89.0531 17.024L87.2051 13.856V27.584L89.4851 27.824V29H83.6531V27.824L85.5731 27.56V12.656ZM108.585 12.44L104.457 12.584L103.617 17.6H102.033L102.441 11.168H117.393L117.681 17.6H116.169L115.377 12.584L111.225 12.44V27.584L114.633 27.824V29H105.465V27.824L108.585 27.584V12.44ZM121.002 18.248V17.984C121.194 17.824 121.426 17.472 121.698 16.928C121.97 16.368 122.202 15.728 122.394 15.008C122.586 14.272 122.682 13.552 122.682 12.848C122.682 12.672 122.626 12.512 122.514 12.368C122.418 12.224 122.25 12.032 122.01 11.792C121.722 11.52 121.498 11.272 121.338 11.048C121.178 10.808 121.098 10.528 121.098 10.208C121.098 9.792 121.21 9.464 121.434 9.224C121.674 8.984 121.986 8.864 122.37 8.864C122.786 8.864 123.178 9.016 123.546 9.32C123.914 9.624 124.202 10.048 124.41 10.592C124.634 11.12 124.746 11.72 124.746 12.392C124.746 13.368 124.57 14.32 124.218 15.248C123.882 16.16 123.474 16.944 122.994 17.6C122.514 18.256 122.074 18.688 121.674 18.896L121.002 18.248ZM134.343 29.264C133.511 29.264 132.767 29.192 132.111 29.048C131.455 28.904 130.735 28.712 129.951 28.472C129.471 28.296 129.111 28.2 128.871 28.184L129.063 23.84H130.599L131.007 26.96C131.279 27.216 131.719 27.448 132.327 27.656C132.951 27.848 133.631 27.944 134.367 27.944C135.583 27.944 136.503 27.672 137.127 27.128C137.767 26.584 138.087 25.832 138.087 24.872C138.087 24.248 137.911 23.712 137.559 23.264C137.223 22.816 136.767 22.432 136.191 22.112C135.631 21.792 134.855 21.416 133.863 20.984C132.967 20.584 132.183 20.176 131.511 19.76C130.855 19.344 130.279 18.792 129.783 18.104C129.303 17.4 129.063 16.56 129.063 15.584C129.063 14.704 129.295 13.92 129.759 13.232C130.239 12.528 130.919 11.976 131.799 11.576C132.695 11.176 133.735 10.976 134.919 10.976C135.655 10.976 136.303 11.032 136.863 11.144C137.439 11.256 138.087 11.408 138.807 11.6C139.127 11.712 139.399 11.784 139.623 11.816L139.479 15.848H138.015L137.535 12.896C137.375 12.736 137.039 12.584 136.527 12.44C136.031 12.296 135.487 12.224 134.895 12.224C133.791 12.224 132.951 12.456 132.375 12.92C131.815 13.384 131.535 14.056 131.535 14.936C131.535 15.576 131.703 16.112 132.039 16.544C132.391 16.976 132.823 17.344 133.335 17.648C133.847 17.952 134.663 18.368 135.783 18.896C136.823 19.392 137.671 19.84 138.327 20.24C138.983 20.64 139.543 21.168 140.007 21.824C140.487 22.464 140.727 23.232 140.727 24.128C140.727 24.976 140.487 25.792 140.007 26.576C139.543 27.36 138.823 28.008 137.847 28.52C136.887 29.016 135.719 29.264 134.343 29.264ZM150.472 12.656L148.528 12.368V11.168H155.416V12.368L153.04 12.656V27.584L159.232 27.368L160.648 23.336L162.112 23.552L161.272 29H148.48V27.824L150.472 27.584V12.656ZM170.915 29.264C169.283 29.264 167.899 28.888 166.763 28.136C165.643 27.384 164.795 26.328 164.219 24.968C163.643 23.592 163.355 22 163.355 20.192C163.355 18.352 163.699 16.736 164.387 15.344C165.091 13.952 166.051 12.88 167.267 12.128C168.483 11.36 169.851 10.976 171.371 10.976C173.867 10.976 175.771 11.768 177.083 13.352C178.411 14.92 179.075 17.096 179.075 19.88C179.075 21.752 178.715 23.4 177.995 24.824C177.291 26.232 176.315 27.328 175.067 28.112C173.835 28.88 172.451 29.264 170.915 29.264ZM171.227 12.224C169.675 12.224 168.451 12.904 167.555 14.264C166.659 15.608 166.211 17.584 166.211 20.192C166.211 22.592 166.643 24.496 167.507 25.904C168.387 27.296 169.611 27.992 171.179 27.992C172.715 27.992 173.931 27.296 174.827 25.904C175.739 24.512 176.195 22.512 176.195 19.904C176.195 17.488 175.763 15.608 174.899 14.264C174.035 12.904 172.811 12.224 171.227 12.224ZM189.219 29.264C187.491 29.264 185.995 28.88 184.731 28.112C183.483 27.344 182.531 26.288 181.875 24.944C181.219 23.584 180.891 22.048 180.891 20.336C180.891 18.368 181.275 16.68 182.043 15.272C182.827 13.864 183.907 12.8 185.283 12.08C186.659 11.344 188.227 10.976 189.987 10.976C191.603 10.976 193.467 11.224 195.579 11.72L195.363 15.872H193.659L193.083 12.992C192.859 12.816 192.475 12.648 191.931 12.488C191.403 12.328 190.691 12.248 189.795 12.248C188.627 12.248 187.595 12.536 186.699 13.112C185.803 13.688 185.099 14.544 184.587 15.68C184.091 16.816 183.843 18.192 183.843 19.808C183.843 21.296 184.043 22.656 184.443 23.888C184.859 25.12 185.483 26.112 186.315 26.864C187.163 27.6 188.195 27.968 189.411 27.968C190.179 27.968 190.907 27.88 191.595 27.704C192.283 27.512 192.811 27.264 193.179 26.96V21.608L190.155 21.368V19.952H197.163V21.368L195.771 21.584V28.04C195.419 28.056 194.835 28.192 194.019 28.448C193.187 28.704 192.403 28.904 191.667 29.048C190.931 29.192 190.115 29.264 189.219 29.264Z" fill="#010000"/>
<path d="M57.592 45.12C57.136 45.12 56.796 45.016 56.572 44.808C56.348 44.6 56.236 44.244 56.236 43.74V39.132H55.372V38.592C55.412 38.584 55.524 38.556 55.708 38.508C55.892 38.46 56.016 38.416 56.08 38.376C56.208 38.304 56.308 38.16 56.38 37.944C56.444 37.792 56.52 37.548 56.608 37.212C56.696 36.876 56.748 36.676 56.764 36.612H57.472L57.496 38.34H59.5V39.132H57.496V42.816C57.496 43.272 57.508 43.592 57.532 43.776C57.564 43.96 57.624 44.08 57.712 44.136C57.808 44.192 57.968 44.22 58.192 44.22C58.408 44.22 58.644 44.192 58.9 44.136C59.164 44.08 59.368 44.02 59.512 43.956L59.692 44.496C59.5 44.64 59.188 44.78 58.756 44.916C58.332 45.052 57.944 45.12 57.592 45.12ZM60.4267 43.2C60.4267 42.448 60.8027 41.896 61.5547 41.544C62.3067 41.184 63.2587 40.992 64.4107 40.968V40.632C64.4107 40.256 64.3707 39.96 64.2907 39.744C64.2107 39.528 64.0707 39.372 63.8707 39.276C63.6787 39.172 63.4027 39.12 63.0427 39.12C62.6347 39.12 62.2667 39.18 61.9387 39.3C61.6187 39.412 61.2987 39.552 60.9787 39.72L60.6787 39.096C60.7827 39.008 60.9747 38.892 61.2547 38.748C61.5347 38.604 61.8587 38.476 62.2267 38.364C62.5947 38.252 62.9627 38.196 63.3307 38.196C63.8987 38.196 64.3467 38.276 64.6747 38.436C65.0107 38.588 65.2507 38.836 65.3947 39.18C65.5387 39.524 65.6107 39.984 65.6107 40.56V44.412H66.3187V44.94C66.1587 44.98 65.9547 45.02 65.7067 45.06C65.4667 45.1 65.2547 45.12 65.0707 45.12C64.8467 45.12 64.6947 45.084 64.6147 45.012C64.5347 44.948 64.4947 44.8 64.4947 44.568V44.172C64.2547 44.412 63.9587 44.632 63.6067 44.832C63.2627 45.032 62.8707 45.132 62.4307 45.132C61.8547 45.132 61.3747 44.968 60.9907 44.64C60.6147 44.304 60.4267 43.824 60.4267 43.2ZM62.9467 44.316C63.1547 44.316 63.3947 44.252 63.6667 44.124C63.9387 43.996 64.1867 43.844 64.4107 43.668V41.604C63.5387 41.604 62.8787 41.74 62.4307 42.012C61.9907 42.276 61.7707 42.624 61.7707 43.056C61.7707 43.488 61.8747 43.808 62.0827 44.016C62.2987 44.216 62.5867 44.316 62.9467 44.316ZM68.0293 36.048L67.0573 35.916V35.4L68.9893 35.172H69.0133L69.2773 35.352V44.316L70.2973 44.412V45H67.0573V44.412L68.0293 44.304V36.048ZM74.1014 45.132C73.1334 45.132 72.3934 44.816 71.8814 44.184C71.3774 43.552 71.1254 42.708 71.1254 41.652C71.1254 40.956 71.2574 40.344 71.5214 39.816C71.7854 39.288 72.1534 38.88 72.6254 38.592C73.1054 38.304 73.6494 38.16 74.2574 38.16C75.0014 38.16 75.5774 38.368 75.9854 38.784C76.4014 39.192 76.6214 39.78 76.6454 40.548C76.6454 41.036 76.6174 41.408 76.5614 41.664H72.4334C72.4494 42.456 72.6334 43.096 72.9854 43.584C73.3374 44.064 73.8374 44.304 74.4854 44.304C74.8054 44.304 75.1374 44.248 75.4814 44.136C75.8334 44.016 76.1054 43.876 76.2974 43.716L76.5254 44.244C76.2934 44.484 75.9494 44.692 75.4934 44.868C75.0374 45.044 74.5734 45.132 74.1014 45.132ZM75.3254 41.028C75.3494 40.86 75.3614 40.688 75.3614 40.512C75.3534 39.992 75.2414 39.584 75.0254 39.288C74.8174 38.984 74.4854 38.832 74.0294 38.832C73.5654 38.832 73.1934 39 72.9134 39.336C72.6414 39.672 72.4854 40.236 72.4454 41.028H75.3254ZM78.7927 44.04C78.8727 44.16 79.0407 44.268 79.2967 44.364C79.5607 44.46 79.8367 44.508 80.1247 44.508C80.5807 44.508 80.9167 44.42 81.1327 44.244C81.3487 44.068 81.4567 43.824 81.4567 43.512C81.4567 43.296 81.3887 43.108 81.2527 42.948C81.1167 42.788 80.9247 42.648 80.6767 42.528C80.4367 42.4 80.0887 42.248 79.6327 42.072C79.0167 41.84 78.5647 41.564 78.2767 41.244C77.9967 40.916 77.8567 40.488 77.8567 39.96C77.8567 39.608 77.9607 39.3 78.1687 39.036C78.3847 38.772 78.6767 38.568 79.0447 38.424C79.4207 38.272 79.8367 38.196 80.2927 38.196C80.6607 38.196 80.9807 38.224 81.2527 38.28C81.5327 38.336 81.7567 38.392 81.9247 38.448C82.0927 38.504 82.2047 38.54 82.2607 38.556V40.044H81.5287L81.2887 39.156C81.2407 39.06 81.1127 38.98 80.9047 38.916C80.6967 38.844 80.4647 38.808 80.2087 38.808C79.8487 38.808 79.5567 38.888 79.3327 39.048C79.1167 39.208 79.0087 39.424 79.0087 39.696C79.0087 39.936 79.0647 40.136 79.1767 40.296C79.2967 40.448 79.4447 40.572 79.6207 40.668C79.7967 40.764 80.0367 40.876 80.3407 41.004L80.5807 41.1C81.0287 41.276 81.3927 41.444 81.6727 41.604C81.9527 41.764 82.1847 41.976 82.3687 42.24C82.5607 42.496 82.6567 42.812 82.6567 43.188C82.6567 43.78 82.4247 44.252 81.9607 44.604C81.5047 44.956 80.8767 45.132 80.0767 45.132C79.6847 45.132 79.2727 45.08 78.8407 44.976C78.4167 44.864 78.0687 44.752 77.7967 44.64V43.104H78.5767L78.7927 44.04ZM86.583 41.652C86.583 40.932 86.731 40.308 87.027 39.78C87.323 39.252 87.711 38.852 88.191 38.58C88.679 38.3 89.199 38.16 89.751 38.16C90.759 38.16 91.515 38.48 92.019 39.12C92.531 39.76 92.787 40.6 92.787 41.64C92.787 42.368 92.639 42.996 92.343 43.524C92.047 44.052 91.655 44.452 91.167 44.724C90.687 44.996 90.171 45.132 89.619 45.132C88.611 45.132 87.851 44.812 87.339 44.172C86.835 43.532 86.583 42.692 86.583 41.652ZM89.691 44.448C90.243 44.448 90.667 44.22 90.963 43.764C91.259 43.308 91.407 42.632 91.407 41.736C91.407 40.848 91.271 40.144 90.999 39.624C90.727 39.104 90.291 38.844 89.691 38.844C89.139 38.844 88.711 39.072 88.407 39.528C88.111 39.984 87.963 40.66 87.963 41.556C87.963 42.444 88.103 43.148 88.383 43.668C88.663 44.188 89.099 44.448 89.691 44.448ZM94.8438 39.132H93.7158V38.58L94.8438 38.352V37.788C94.8438 37.292 94.9718 36.836 95.2278 36.42C95.4918 36.004 95.8318 35.676 96.2478 35.436C96.6718 35.188 97.1198 35.064 97.5918 35.064C97.8638 35.064 98.0998 35.1 98.2998 35.172V36.372C98.2278 36.308 98.0838 36.248 97.8678 36.192C97.6598 36.128 97.4278 36.096 97.1718 36.096C96.7958 36.096 96.5198 36.196 96.3438 36.396C96.1758 36.588 96.0918 36.924 96.0918 37.404V38.352H97.7478V39.132H96.0918V44.316L97.4238 44.412V45H93.8238V44.412L94.8438 44.304V39.132ZM102.412 36.048L101.44 35.916V35.4L103.372 35.172H103.396L103.66 35.352V44.316L104.68 44.412V45H101.44V44.412L102.412 44.304V36.048ZM105.532 43.2C105.532 42.448 105.908 41.896 106.66 41.544C107.412 41.184 108.364 40.992 109.516 40.968V40.632C109.516 40.256 109.476 39.96 109.396 39.744C109.316 39.528 109.176 39.372 108.976 39.276C108.784 39.172 108.508 39.12 108.148 39.12C107.74 39.12 107.372 39.18 107.044 39.3C106.724 39.412 106.404 39.552 106.084 39.72L105.784 39.096C105.888 39.008 106.08 38.892 106.36 38.748C106.64 38.604 106.964 38.476 107.332 38.364C107.7 38.252 108.068 38.196 108.436 38.196C109.004 38.196 109.452 38.276 109.78 38.436C110.116 38.588 110.356 38.836 110.5 39.18C110.644 39.524 110.716 39.984 110.716 40.56V44.412H111.424V44.94C111.264 44.98 111.06 45.02 110.812 45.06C110.572 45.1 110.36 45.12 110.176 45.12C109.952 45.12 109.8 45.084 109.72 45.012C109.64 44.948 109.6 44.8 109.6 44.568V44.172C109.36 44.412 109.064 44.632 108.712 44.832C108.368 45.032 107.976 45.132 107.536 45.132C106.96 45.132 106.48 44.968 106.096 44.64C105.72 44.304 105.532 43.824 105.532 43.2ZM108.052 44.316C108.26 44.316 108.5 44.252 108.772 44.124C109.044 43.996 109.292 43.844 109.516 43.668V41.604C108.644 41.604 107.984 41.74 107.536 42.012C107.096 42.276 106.876 42.624 106.876 43.056C106.876 43.488 106.98 43.808 107.188 44.016C107.404 44.216 107.692 44.316 108.052 44.316ZM113.471 39.108L113.255 40.248H112.523V38.34H117.623L117.863 38.856L114.335 43.584L113.507 44.328L116.735 44.22L117.239 42.876L117.935 42.96L117.719 45H112.331L112.079 44.472L115.667 39.792L116.459 39.024L113.471 39.108ZM120.319 37.14C120.063 37.14 119.871 37.068 119.743 36.924C119.615 36.78 119.551 36.596 119.551 36.372C119.551 36.116 119.627 35.904 119.779 35.736C119.939 35.568 120.155 35.484 120.427 35.484C120.699 35.484 120.899 35.556 121.027 35.7C121.155 35.844 121.219 36.028 121.219 36.252C121.219 36.524 121.139 36.74 120.979 36.9C120.827 37.06 120.611 37.14 120.331 37.14H120.319ZM119.839 39.264L118.927 39.048V38.412L120.787 38.184H120.811L121.087 38.4V44.316L122.047 44.412V45H118.867V44.412L119.839 44.304V39.264ZM123.619 39.264L122.755 39.048V38.4L124.471 38.184H124.507L124.759 38.4V38.904L124.747 39.192C125.035 38.936 125.415 38.704 125.887 38.496C126.359 38.288 126.811 38.184 127.243 38.184C127.747 38.184 128.135 38.28 128.407 38.472C128.687 38.664 128.883 38.96 128.995 39.36C129.107 39.752 129.163 40.284 129.163 40.956V44.316L130.003 44.4V45H127.159V44.412L127.903 44.316V40.944C127.903 40.472 127.871 40.104 127.807 39.84C127.743 39.568 127.623 39.368 127.447 39.24C127.271 39.104 127.015 39.036 126.679 39.036C126.391 39.036 126.083 39.108 125.755 39.252C125.427 39.396 125.135 39.564 124.879 39.756V44.304L125.695 44.412V45H122.863V44.412L123.619 44.304V39.264ZM133.82 45.132C132.852 45.132 132.112 44.816 131.6 44.184C131.096 43.552 130.844 42.708 130.844 41.652C130.844 40.956 130.976 40.344 131.24 39.816C131.504 39.288 131.872 38.88 132.344 38.592C132.824 38.304 133.368 38.16 133.976 38.16C134.72 38.16 135.296 38.368 135.704 38.784C136.12 39.192 136.34 39.78 136.364 40.548C136.364 41.036 136.336 41.408 136.28 41.664H132.152C132.168 42.456 132.352 43.096 132.704 43.584C133.056 44.064 133.556 44.304 134.204 44.304C134.524 44.304 134.856 44.248 135.2 44.136C135.552 44.016 135.824 43.876 136.016 43.716L136.244 44.244C136.012 44.484 135.668 44.692 135.212 44.868C134.756 45.044 134.292 45.132 133.82 45.132ZM135.044 41.028C135.068 40.86 135.08 40.688 135.08 40.512C135.072 39.992 134.96 39.584 134.744 39.288C134.536 38.984 134.204 38.832 133.748 38.832C133.284 38.832 132.912 39 132.632 39.336C132.36 39.672 132.204 40.236 132.164 41.028H135.044ZM138.511 44.04C138.591 44.16 138.759 44.268 139.015 44.364C139.279 44.46 139.555 44.508 139.843 44.508C140.299 44.508 140.635 44.42 140.851 44.244C141.067 44.068 141.175 43.824 141.175 43.512C141.175 43.296 141.107 43.108 140.971 42.948C140.835 42.788 140.643 42.648 140.395 42.528C140.155 42.4 139.807 42.248 139.351 42.072C138.735 41.84 138.283 41.564 137.995 41.244C137.715 40.916 137.575 40.488 137.575 39.96C137.575 39.608 137.679 39.3 137.887 39.036C138.103 38.772 138.395 38.568 138.763 38.424C139.139 38.272 139.555 38.196 140.011 38.196C140.379 38.196 140.699 38.224 140.971 38.28C141.251 38.336 141.475 38.392 141.643 38.448C141.811 38.504 141.923 38.54 141.979 38.556V40.044H141.247L141.007 39.156C140.959 39.06 140.831 38.98 140.623 38.916C140.415 38.844 140.183 38.808 139.927 38.808C139.567 38.808 139.275 38.888 139.051 39.048C138.835 39.208 138.727 39.424 138.727 39.696C138.727 39.936 138.783 40.136 138.895 40.296C139.015 40.448 139.163 40.572 139.339 40.668C139.515 40.764 139.755 40.876 140.059 41.004L140.299 41.1C140.747 41.276 141.111 41.444 141.391 41.604C141.671 41.764 141.903 41.976 142.087 42.24C142.279 42.496 142.375 42.812 142.375 43.188C142.375 43.78 142.143 44.252 141.679 44.604C141.223 44.956 140.595 45.132 139.795 45.132C139.403 45.132 138.991 45.08 138.559 44.976C138.135 44.864 137.787 44.752 137.515 44.64V43.104H138.295L138.511 44.04Z" fill="#010000"/>
<path d="M7 41H48" stroke="#010000" stroke-linecap="round"/>
<path d="M150 41H191" stroke="#010000" stroke-linecap="round"/>
</svg>
